<?xml version="1.0" encoding="UTF-8"?>
<svg width="800px" height="600px" viewBox="0 0 800 600" version="1.1" xmlns="http://www.w3.org/2000/svg">
    <g stroke="none" stroke-width="1" fill="none" fill-rule="evenodd">
        <!-- Background Elements -->
        <circle fill="#FFFFFF" opacity="0.1" cx="400" cy="300" r="250"/>
        <circle fill="#FFFFFF" opacity="0.05" cx="400" cy="300" r="200"/>
        
        <!-- Career Path -->
        <path d="M200,450 C300,350 500,250 600,150" stroke="#FFFFFF" stroke-width="4" stroke-linecap="round" opacity="0.8"/>
        
        <!-- Person Silhouette -->
        <g transform="translate(400, 300)">
            <!-- Head -->
            <circle fill="#FFFFFF" cx="0" cy="-80" r="30"/>
            
            <!-- Body -->
            <path d="M0,-50 L0,50" stroke="#FFFFFF" stroke-width="4" stroke-linecap="round"/>
            
            <!-- Arms -->
            <path d="M0,-30 L-40,0" stroke="#FFFFFF" stroke-width="4" stroke-linecap="round"/>
            <path d="M0,-30 L40,0" stroke="#FFFFFF" stroke-width="4" stroke-linecap="round"/>
            
            <!-- Legs -->
            <path d="M0,50 L-30,100" stroke="#FFFFFF" stroke-width="4" stroke-linecap="round"/>
            <path d="M0,50 L30,100" stroke="#FFFFFF" stroke-width="4" stroke-linecap="round"/>
        </g>
        
        <!-- Career Icons -->
        <g transform="translate(200, 450)">
            <circle fill="#FFFFFF" opacity="0.2" cx="0" cy="0" r="20"/>
            <path d="M-10,0 L10,0 M0,-10 L0,10" stroke="#FFFFFF" stroke-width="2"/>
        </g>
        
        <g transform="translate(400, 350)">
            <circle fill="#FFFFFF" opacity="0.2" cx="0" cy="0" r="20"/>
            <path d="M-8,-8 L8,8 M-8,8 L8,-8" stroke="#FFFFFF" stroke-width="2"/>
        </g>
        
        <g transform="translate(600, 250)">
            <circle fill="#FFFFFF" opacity="0.2" cx="0" cy="0" r="20"/>
            <path d="M-10,0 L10,0" stroke="#FFFFFF" stroke-width="2"/>
        </g>
        
        <!-- Decorative Elements -->
        <circle fill="#FFFFFF" opacity="0.1" cx="150" cy="150" r="10"/>
        <circle fill="#FFFFFF" opacity="0.1" cx="650" cy="450" r="15"/>
        <circle fill="#FFFFFF" opacity="0.1" cx="500" cy="100" r="8"/>
        <circle fill="#FFFFFF" opacity="0.1" cx="200" cy="500" r="12"/>
    </g>
</svg> 