<?xml version="1.0" encoding="utf-8"?>
<!-- Generator: Adobe Illustrator 25.4.1, SVG Export Plug-In . SVG Version: 6.00 Build 0)  -->
<svg version="1.1" id="Layer_1" xmlns="http://www.w3.org/2000/svg" xmlns:xlink="http://www.w3.org/1999/xlink" x="0px" y="0px"
	 viewBox="0 0 1080 405" style="enable-background:new 0 0 1080 405;" xml:space="preserve">
<style type="text/css">
	.st0{fill:url(#SVGID_1_);}
	.st1{fill:url(#SVGID_00000008121284593334586190000007803944723438977155_);}
	.st2{fill:url(#SVGID_00000149349810639520152600000013679443441085174452_);}
</style>
<g>
	<g>
		<g>
			<linearGradient id="SVGID_1_" gradientUnits="userSpaceOnUse" x1="226.2531" y1="225.3648" x2="367.3005" y2="225.3648">
				<stop  offset="0" style="stop-color:#E637DE"/>
				<stop  offset="0.9159" style="stop-color:#9527F2"/>
			</linearGradient>
			<path class="st0" d="M226.3,225.4c0-37.9,29.8-65.3,70.5-65.3c40.7,0,70.5,27.5,70.5,65.3c0,37.9-29.8,65.3-70.5,65.3
				C256.1,290.7,226.3,263.2,226.3,225.4z M324.8,225.4c0-19.5-12.5-31.2-28-31.2c-15.5,0-28,11.8-28,31.2s12.5,31.2,28,31.2
				C312.3,256.6,324.8,244.8,324.8,225.4z"/>
			
				<linearGradient id="SVGID_00000092446798852512396600000011098042346212838071_" gradientUnits="userSpaceOnUse" x1="377.2918" y1="225.3648" x2="500.4837" y2="225.3648">
				<stop  offset="0" style="stop-color:#E637DE"/>
				<stop  offset="0.9159" style="stop-color:#9527F2"/>
			</linearGradient>
			<path style="fill:url(#SVGID_00000092446798852512396600000011098042346212838071_);" d="M500.5,253.4
				c0,21.8-18.4,34.5-52.8,34.5h-66.9c-1.9,0-3.4-1.5-3.4-3.4V166.3c0-1.9,1.5-3.4,3.4-3.4h63.3c34.5,0,50.5,13.7,50.5,32.7
				c0,9.6-4,17.9-11.9,23.7c-2.1,1.5-1.9,4.6,0.4,5.8C494.1,230.9,500.5,240.7,500.5,253.4z M418.7,195.8v11.7
				c0,1.9,1.5,3.4,3.4,3.4h16.2c9.5,0,13.7-3.2,13.7-9.3c0-6.1-4.3-9.3-13.7-9.3h-16.2C420.3,192.3,418.7,193.9,418.7,195.8z
				 M458,248.6c0-6.4-4.6-9.8-13.9-9.8h-21.9c-1.9,0-3.4,1.5-3.4,3.4v12.7c0,1.9,1.5,3.4,3.4,3.4h21.9
				C453.3,258.4,458,255,458,248.6z"/>
			<path d="M633.1,166.3v118.1c0,1.9-1.5,3.4-3.4,3.4h-35.2c-1.9,0-3.4-1.5-3.4-3.4v-39.2c0-1.9-1.5-3.4-3.4-3.4h-32
				c-1.9,0-3.4,1.5-3.4,3.4v39.2c0,1.9-1.5,3.4-3.4,3.4h-35.2c-1.9,0-3.4-1.5-3.4-3.4V166.3c0-1.9,1.5-3.4,3.4-3.4h35.2
				c1.9,0,3.4,1.5,3.4,3.4v37.4c0,1.9,1.5,3.4,3.4,3.4h32c1.9,0,3.4-1.5,3.4-3.4v-37.4c0-1.9,1.5-3.4,3.4-3.4h35.2
				C631.6,162.9,633.1,164.4,633.1,166.3z"/>
			<path d="M647.1,231.6v-65.3c0-1.9,1.5-3.4,3.4-3.4h35.2c1.9,0,3.4,1.5,3.4,3.4v64c0,19.1,7.3,26.2,19.1,26.2
				c11.8,0,19.1-7.1,19.1-26.2v-64c0-1.9,1.5-3.4,3.4-3.4h34.5c1.9,0,3.4,1.5,3.4,3.4v65.3c0,37.5-22.5,59.1-60.9,59.1
				C669.5,290.7,647.1,269.1,647.1,231.6z"/>
			<path d="M905.9,166.3v118.1c0,1.9-1.5,3.4-3.4,3.4h-29.6c-1,0-2-0.5-2.6-1.2l-40.4-48.3c-2.1-2.5-6.1-1-6.1,2.2v43.8
				c0,1.9-1.5,3.4-3.4,3.4h-34.2c-1.9,0-3.4-1.5-3.4-3.4V166.3c0-1.9,1.5-3.4,3.4-3.4h29.6c1,0,2,0.5,2.6,1.2l40.4,48.3
				c2.1,2.5,6.1,1,6.1-2.2v-43.8c0-1.9,1.5-3.4,3.4-3.4h34.2C904.4,162.9,905.9,164.4,905.9,166.3z"/>
			<path d="M951,195.5h-29.7c-1.9,0-3.4-1.5-3.4-3.4v-25.8c0-1.9,1.5-3.4,3.4-3.4h108.4c1.9,0,3.4,1.5,3.4,3.4v25.8
				c0,1.9-1.5,3.4-3.4,3.4h-29.7c-1.9,0-3.4,1.5-3.4,3.4v85.4c0,1.9-1.5,3.4-3.4,3.4h-35.2c-1.9,0-3.4-1.5-3.4-3.4V199
				C954.5,197.1,952.9,195.5,951,195.5z"/>
		</g>
		
			<linearGradient id="SVGID_00000130608342599843559350000013231664586672689307_" gradientUnits="userSpaceOnUse" x1="46.7767" y1="191.5264" x2="281.2537" y2="191.5264">
			<stop  offset="0" style="stop-color:#E637DE"/>
			<stop  offset="0.9159" style="stop-color:#9527F2"/>
		</linearGradient>
		<path style="fill:url(#SVGID_00000130608342599843559350000013231664586672689307_);" d="M280.5,139.2
			c-29.9-37.3-59.7-74.3-89.7-111.6c-1.3-1.6-3.6-1.6-4.9,0c-29.9,37.2-59.7,74.3-89.6,111.5c-1.7,2.1-0.2,5.2,2.5,5.2h53.6
			c0,0.2,0.1,0.4,0.1,0.5h-0.1c0.1,0.6,0.2,1,0.2,1.4c-0.6,28.2-3.9,69.4-11.6,96.1c-6,20.8-14.5,40-26.8,56.3
			c-17.4,23-38.7,37.7-64.2,43.3c-0.5,0.1-1.1,0.2-1.6,0.3c-0.5,0.1-1,0.2-1.5,0.3v10.1c0,2.3,1.4,4.1,3.2,4.1
			c31.9-0.9,62.5-8.9,90.9-26.6c37-23,61.5-58.9,73.7-106.9c4.1-16,6.8-46,7.9-62.7c0.3-4.2,0.4-8.3,0.6-12.5c0-0.9,0.1-1.7,0.2-2.7
			c0-0.3,0-0.5,0.1-0.8h54.7C280.8,144.4,282.2,141.2,280.5,139.2z"/>
	</g>
	<g>
		<path d="M223.4,342.1c0,10.4-4.3,14.2-13.3,14.2h-3v-7h1.5c3.3,0,5.6-1.1,5.6-7.1v-12.3h-20.6v-7h29.7V342.1z M203,337.2v27.5
			h-9.2v-27.5H203z"/>
		<path d="M242.9,356.3h-9.7l-3.9-33.5h9.1l3,26.5h1.5c6.4,0,8.7-2.4,8.7-10.5v-8.9h-7.3v-7h16.4v15.9
			C260.7,352.2,254.2,356.3,242.9,356.3z"/>
		<path d="M285.4,336.1v6.6h-19.1v-6.6H285.4z"/>
		<path d="M291.2,342.7v-19.9h9.2v19.9H291.2z"/>
		<path d="M307.6,342.7v-19.9h9.2v19.9H307.6z"/>
		<path d="M352.9,356.3h-9.1v-26.5h-19.9v-7h29V356.3z M333.2,337.2v19.1H324v-19.1H333.2z"/>
		<path d="M389.6,356.3h-9.1v-26.5h-19.9v-7h29V356.3z M369.9,337.2v19.1h-9.2v-19.1H369.9z"/>
		<path d="M443.6,334.3v22h-29.8v-33.5h18.5C440.3,322.9,443.6,326.2,443.6,334.3z M434.7,335.9c0-4.4-1.5-6-5-6h-7v19.4h12V335.9z"
			/>
		<path d="M463.2,329.9H448v-12.6h8.7v5.6h18.2l-11.4,33.5h-9.6L463.2,329.9z"/>
		<path d="M480.4,356.3v-33.5h9.2v33.5H480.4z"/>
		<path d="M525.2,322.9v16.2c0,10-4.5,14.1-13.7,16.6l-14.8,4.2l-1.7-6.9l6.6-2l-5.9-28.2h9.2l5.2,25.8c4.7-1.4,6-3,6-9.8v-16H525.2
			z"/>
		<path d="M545.4,329.9h-15.2v-12.6h8.7v5.6h18.2l-11.4,33.5h-9.6L545.4,329.9z"/>
		<path d="M577.7,342.7v-19.9h9.2v19.9H577.7z"/>
		<path d="M632,340.7c0,11.2-5,15.7-16.7,15.7h-18.4l-3.7-33.5h8.9l2.8,26.5h8.8c7.3,0,9.7-2.4,9.7-9.6v-16.9h8.8V340.7z
			 M609.1,322.9h8.6v20.9h-8.6V322.9z"/>
		<path d="M639.6,342.7v-19.9h9.2v19.9H639.6z"/>
		<path d="M677.1,356.3L665.8,339c-1.6,0.6-2.1,1.8-2.1,4.2v13.2h-9v-13.1c0-5.1,2.3-9,7.3-10l-6.8-10.3h9.3l10.2,15.5
			c1.6-0.6,2.3-1.8,2.3-4.1v-11.4h9.1v11.8c0,5.9-3.5,8.7-7.4,9.8l7.8,11.9H677.1z"/>
		<path d="M738.9,334.3v22h-29.8v-33.5h18.5C735.6,322.9,738.9,326.2,738.9,334.3z M729.9,335.9c0-4.4-1.5-6-5-6h-7v19.4h12V335.9z"
			/>
		<path d="M745.6,342.7v-19.9h9.2v19.9H745.6z"/>
		<path d="M774.2,356.3h-9.7l-3.9-33.5h9.1l3,26.5h1.5c6.4,0,8.7-2.4,8.7-10.5v-8.9h-7.3v-7H792v15.9
			C792,352.2,785.6,356.3,774.2,356.3z"/>
		<path d="M796,356.3v-7h3.4c2.9,0,3.7-1.2,3.7-4.3v-15.1h-4.7v-7h13.8v23.3c0,7.8-2.1,10.2-9.3,10.2H796z"/>
		<path d="M832.5,329.9h-15.2v-12.6h8.7v5.6h18.2l-11.4,33.5h-9.6L832.5,329.9z"/>
		<path d="M869.9,356.3L858.6,339c-1.6,0.6-2.1,1.8-2.1,4.2v13.2h-9v-13.1c0-5.1,2.3-9,7.3-10l-6.8-10.3h9.3l10.2,15.5
			c1.6-0.6,2.3-1.8,2.3-4.1v-11.4h9.1v11.8c0,5.9-3.5,8.7-7.4,9.8l7.8,11.9H869.9z"/>
		<path d="M898.2,356.3h-9.7l-3.9-33.5h9.1l3,26.5h1.5c6.4,0,8.7-2.4,8.7-10.5v-8.9h-7.3v-7H916v15.9
			C916,352.2,909.6,356.3,898.2,356.3z"/>
		<path d="M948.6,364.7h-9.2v-41.9h9.2V364.7z"/>
		<path d="M979.3,338v3.1c0,11.1-3.6,15.2-14,15.2h-9.9v-7h7.7c5.6,0,7-2.6,7-8.7v-2.1c0-6-1.4-8.7-7-8.7h-7.7v-7h9.9
			C975.7,322.9,979.3,326.9,979.3,338z"/>
		<path d="M986.4,356.3v-33.5h9.2v33.5H986.4z"/>
		<path d="M1032.7,338.6c0,13.6-6,17.7-17.4,17.7h-9.6l-3.6-33.5h30.6V338.6z M1023.6,329.9h-11.8l2.1,19.4h1.4
			c6.4,0,8.3-2.5,8.3-10.7V329.9z"/>
	</g>
</g>
</svg>
